<?xml version="1.0" encoding="UTF-8"?>
<svg version="1.1" xmlns="http://www.w3.org/2000/svg" width="512" height="512">
<path d="M0 0 C5.90192624 5.97372583 8.64117324 14.00838965 11.79296875 21.625 C25.07897156 53.53230734 47.53099255 79.84600831 79.60546875 93.625 C98.54600278 101.00414447 118.15049315 101.03918505 137.59301758 95.90966797 C141.94577483 94.79681253 145.28052926 94.25337633 149.60546875 95.625 C152.82156312 98.38864152 154.52134311 101.06103079 156.2421875 104.91015625 C156.72913086 105.98201172 157.21607422 107.05386719 157.71777344 108.15820312 C158.23758789 109.32287109 158.75740234 110.48753906 159.29296875 111.6875 C160.43159302 114.20192664 161.57821551 116.71265709 162.7265625 119.22265625 C163.02954254 119.88625153 163.33252258 120.5498468 163.64468384 121.23355103 C167.92292102 130.55929051 172.47257906 139.75701336 177.00595093 148.96072388 C178.08900053 151.15985632 179.16771642 153.36107374 180.24609375 155.5625 C180.57154678 156.21862778 180.89699982 156.87475555 181.23231506 157.55076599 C182.70165096 160.55567986 183.86616685 163.36804853 184.60546875 166.625 C183.6946479 166.63379936 183.6946479 166.63379936 182.76542664 166.64277649 C176.455043 166.70662728 170.1451733 166.79102503 163.83520508 166.88745117 C161.47915414 166.9207402 159.12302269 166.94875961 156.7668457 166.97143555 C153.38327668 167.00490803 150.00044821 167.05722092 146.6171875 167.11328125 C145.03269051 167.12286613 145.03269051 167.12286613 143.41618347 167.13264465 C142.43539322 167.15243881 141.45460297 167.17223297 140.4440918 167.19262695 C139.5802739 167.20373001 138.71645599 167.21483307 137.82646179 167.22627258 C135.10854538 167.71421098 134.21380831 168.40375358 132.60546875 170.625 C132.02213542 174.125 132.02213542 174.125 132.60546875 177.625 C134.77769158 179.83048935 136.10041202 180.56680416 139.18986511 180.92279053 C140.1664357 180.88865051 141.14300629 180.8545105 142.14916992 180.81933594 C143.26100143 180.79071472 144.37283295 180.76209351 145.51835632 180.73260498 C146.71628311 180.69193909 147.9142099 180.65127319 149.1484375 180.609375 C151.69200792 180.57317024 154.23563432 180.54073737 156.77929688 180.51171875 C160.78667009 180.45429176 164.78837432 180.38222861 168.79321289 180.23095703 C190.58206073 179.49654683 190.58206073 179.49654683 195.67214966 183.07992554 C199.26698136 187.08540497 200.84312552 191.6135427 202.60546875 196.625 C204.3688715 199.33889883 204.3688715 199.33889883 206.16796875 201.4375 C208.60546875 204.42987805 208.60546875 204.42987805 208.60546875 206.625 C208.02553162 206.62864563 207.44559448 206.63229126 206.8480835 206.63604736 C200.81319066 206.67785068 194.7790599 206.74718059 188.74462891 206.83251953 C186.49242779 206.86074911 184.24012723 206.8819537 181.98779297 206.89599609 C178.75045792 206.9173976 175.51432101 206.96403495 172.27734375 207.015625 C171.26992126 207.01685364 170.26249878 207.01808228 169.22454834 207.01934814 C163.74677536 207.08129807 163.74677536 207.08129807 158.93457031 209.43652344 C157.28445017 211.71479127 157.28445017 211.71479127 157.66796875 215.25 C158.28055325 218.88016924 158.28055325 218.88016924 161.60546875 220.625 C164.21617972 220.79704608 164.21617972 220.79704608 167.18066406 220.57885742 C168.32808578 220.52542175 169.47550751 220.47198608 170.65769958 220.41693115 C172.5267672 220.32463226 172.5267672 220.32463226 174.43359375 220.23046875 C222.39435838 218.61020934 222.39435838 218.61020934 233.51638794 228.25215149 C238.36676495 233.01012316 242.60215791 238.52410399 245.60546875 244.625 C245.60546875 245.285 245.60546875 245.945 245.60546875 246.625 C245.023311 246.63086624 244.44115326 246.63673248 243.84135437 246.64277649 C237.79047914 246.70663534 231.74013951 246.79103504 225.68969727 246.88745117 C223.43065444 246.92073686 221.17152772 246.94875733 218.91235352 246.97143555 C215.66776727 247.00491426 212.42395242 247.05722718 209.1796875 247.11328125 C207.66081184 247.12286613 207.66081184 247.12286613 206.11125183 247.13264465 C205.17050308 247.15243881 204.22975433 247.17223297 203.26049805 247.19262695 C202.43220993 247.20373001 201.60392181 247.21483307 200.75053406 247.22627258 C198.08571603 247.72161228 197.19381966 248.45171787 195.60546875 250.625 C195.02213542 254.125 195.02213542 254.125 195.60546875 257.625 C197.83535018 259.92795554 199.15987594 260.57906798 202.36381531 260.90933228 C203.42284561 260.86915985 204.48187592 260.82898743 205.57299805 260.78759766 C206.77913254 260.75252106 207.98526703 260.71744446 209.22795105 260.68130493 C210.53202408 260.63436493 211.83609711 260.58742493 213.1796875 260.5390625 C215.96012229 260.48538755 218.74078752 260.45138669 221.52148438 260.4140625 C225.89229578 260.34908292 230.25848457 260.25995804 234.6262207 260.08007812 C261.4401312 259.02115167 261.4401312 259.02115167 270.6431427 267.51596069 C273.9172457 271.03551471 276.78810528 274.73736308 279.60546875 278.625 C281.25808559 280.61621659 282.96307414 282.55285445 284.66796875 284.5 C285.99541031 286.19674923 287.30826474 287.90502303 288.60546875 289.625 C289.71535156 291.06166016 289.71535156 291.06166016 290.84765625 292.52734375 C298.38023821 302.51270596 299.82014117 311.34463214 298.60546875 323.625 C296.79583413 331.44066518 293.01352186 337.01457634 286.66796875 341.875 C260.8584287 355.2247621 217.03786755 341.30789055 191.62255859 333.29418945 C151.36363818 320.13111405 114.07066242 300.64543558 80.60546875 274.625 C79.88649414 274.0666748 79.16751953 273.50834961 78.42675781 272.93310547 C75.38517533 270.56911631 72.34539297 268.20285682 69.30932617 265.83178711 C63.87029717 261.58886651 58.37871354 257.4238858 52.84887695 253.30029297 C47.29863639 249.15783541 41.79421835 244.95722103 36.29296875 240.75 C28.84383963 235.05784904 21.33640243 229.45514263 13.77246094 223.91674805 C7.80631846 219.53756973 1.91688379 215.06440569 -3.95703125 210.5625 C-11.07974765 205.10591609 -18.27779188 199.78185768 -25.57739258 194.56494141 C-32.44625503 189.63528119 -39.15091789 184.50022794 -45.859375 179.35546875 C-51.17136798 175.29104871 -56.53561428 171.33476278 -62.00878906 167.49145508 C-68.34533213 163.01003058 -74.47147276 158.25184194 -80.62768555 153.52758789 C-85.75400253 149.60395326 -90.9240797 145.77205553 -96.20703125 142.0625 C-103.64361828 136.78572093 -103.64361828 136.78572093 -107.20703125 133.9375 C-108.11388672 133.22013672 -108.11388672 133.22013672 -109.0390625 132.48828125 C-111.13731283 129.60394289 -111.6076372 127.10471026 -111.39453125 123.625 C-110.37296428 119.29198619 -108.8774142 115.17097472 -107.33203125 111 C-106.66397461 109.16828247 -106.66397461 109.16828247 -105.98242188 107.29956055 C-94.47728899 76.34101258 -78.40385823 45.97969271 -55.55078125 21.90234375 C-53.58964502 19.83107125 -51.77329221 17.69750442 -49.95703125 15.5 C-38.47319518 2.4404748 -16.69516187 -13.44781917 0 0 Z " fill="#FFF" transform="translate(181.39453125,66.375)"/>
<path d="M0 0 C0.99198259 1.94514847 1.94930305 3.87827713 2.7890625 5.89453125 C6.69418899 14.85442426 15.11446557 19.98292319 22.8125 25.5625 C24.49872222 26.79553968 26.18491945 28.02861354 27.87109375 29.26171875 C28.72429199 29.88353027 29.57749023 30.5053418 30.45654297 31.14599609 C34.43595175 34.04670931 38.4074695 36.95806558 42.375 39.875 C43.14908203 40.44387939 43.92316406 41.01275879 44.72070312 41.59887695 C51.71562658 46.756699 58.61545313 52.0356763 65.51513672 57.31982422 C70.28726096 60.96471688 75.08744284 64.54689583 80 68 C86.77637519 72.76320755 93.33580436 77.79905958 99.91015625 82.8359375 C105.72852838 87.28724225 111.58907773 91.6724824 117.5 96 C125.12752689 101.5864476 132.65644967 107.29276646 140.1640625 113.0390625 C145.89903388 117.4206483 151.67780491 121.73513712 157.5 126 C164.23548526 130.93799359 170.919054 135.93878856 177.5625 141 C178.88834106 142.00933594 178.88834106 142.00933594 180.2409668 143.0390625 C184.35132852 146.17798059 188.44158885 149.33691105 192.484375 152.5625 C209.59392396 166.18505896 227.79112605 178.24748526 246.92138672 188.84765625 C248.83143792 189.90655238 250.73055543 190.98282938 252.62890625 192.0625 C296.51238969 216.38228524 359.90291567 240.68772389 411 229 C413.86105562 227.84471298 416.47741809 226.56920158 419.14453125 225.0234375 C421 224 421 224 423 224 C421.71728416 232.28604944 416.77454839 239.21032539 410.31640625 244.40625 C387.1209436 260.36535415 357.33946974 256.88416489 331.12402344 252.13755798 C282.54363959 243.13552512 243.56734566 225.4663464 202.3125 198.9921875 C190.75653849 191.59970002 179.0027353 184.64272661 167 178 C166.18934082 177.54802246 165.37868164 177.09604492 164.54345703 176.63037109 C140.64093366 163.390935 115.4357633 153.21533722 89.66015625 144.28027344 C60.47613962 134.07209686 32.68836602 123.81010669 10 102 C9.11828125 101.16984375 8.2365625 100.3396875 7.328125 99.484375 C-4.48838219 88.06842737 -13.42877383 76.09127187 -20 61 C-20.3815625 60.15308594 -20.763125 59.30617187 -21.15625 58.43359375 C-25.05956806 48.0428165 -24.70206376 33.45788384 -20.26953125 23.35546875 C-18.11222839 19.35284222 -15.72984366 15.63503986 -13 12 C-12.21625 10.948125 -11.4325 9.89625 -10.625 8.8125 C-7.40545096 5.36298317 -3.85540281 2.69782529 0 0 Z " fill="#FFF" transform="translate(55,195)"/>
<path d="M0 0 C9.24960774 8.04313717 14.89082024 19.41034657 16.875 31.5 C15.88242187 31.53738281 14.88984375 31.57476562 13.8671875 31.61328125 C7.15775156 31.92056459 0.84302897 32.36791965 -5.6875 34.0625 C-12.10952365 35.57008668 -18.28695056 35.79937116 -24.875 35.8125 C-26.3127478 35.82035522 -26.3127478 35.82035522 -27.77954102 35.82836914 C-34.09940811 35.76675712 -39.97900569 34.96281363 -46.125 33.5 C-43.3873833 21.1889017 -30.05350269 7.53026298 -19.8828125 0.55078125 C-13.29448804 -3.3875727 -6.83343678 -3.28004965 0 0 Z " fill="#FFF" transform="translate(317.125,115.5)"/>
</svg>
